<?xml version="1.0" encoding="UTF-8"?>
<svg xmlns="http://www.w3.org/2000/svg" xmlns:xlink="http://www.w3.org/1999/xlink" width="854" height="480" viewBox="0 0 854 480">
<defs>
<g>
<g id="glyph-0-0">
</g>
<g id="glyph-0-1">
<path d="M 6.9375 0 L 4.058594 0 L 4.058594 -0.347656 C 4.3125 -0.363281 4.523438 -0.394531 4.691406 -0.445312 C 4.859375 -0.492188 4.941406 -0.554688 4.941406 -0.625 C 4.941406 -0.65625 4.9375 -0.691406 4.933594 -0.734375 C 4.925781 -0.773438 4.917969 -0.8125 4.902344 -0.84375 L 4.328125 -2.398438 L 1.898438 -2.398438 C 1.804688 -2.167969 1.730469 -1.972656 1.675781 -1.800781 C 1.617188 -1.632812 1.566406 -1.476562 1.519531 -1.332031 C 1.476562 -1.191406 1.449219 -1.078125 1.433594 -0.992188 C 1.417969 -0.902344 1.40625 -0.832031 1.40625 -0.777344 C 1.40625 -0.644531 1.511719 -0.546875 1.714844 -0.472656 C 1.921875 -0.402344 2.152344 -0.359375 2.410156 -0.347656 L 2.410156 0 L -0.199219 0 L -0.199219 -0.347656 C -0.117188 -0.351562 -0.0078125 -0.371094 0.117188 -0.402344 C 0.242188 -0.433594 0.347656 -0.476562 0.429688 -0.527344 C 0.558594 -0.613281 0.660156 -0.707031 0.734375 -0.804688 C 0.804688 -0.898438 0.875 -1.03125 0.941406 -1.203125 C 1.289062 -2.070312 1.675781 -3.046875 2.09375 -4.132812 C 2.515625 -5.214844 2.890625 -6.179688 3.21875 -7.027344 L 3.609375 -7.027344 L 5.917969 -1.050781 C 5.96875 -0.921875 6.023438 -0.820312 6.085938 -0.742188 C 6.144531 -0.664062 6.230469 -0.585938 6.34375 -0.511719 C 6.417969 -0.46875 6.515625 -0.429688 6.636719 -0.398438 C 6.757812 -0.367188 6.855469 -0.351562 6.9375 -0.347656 L 6.9375 0 M 4.152344 -2.832031 L 3.101562 -5.519531 L 2.066406 -2.832031 Z "/>
</g>
<g id="glyph-0-2">
<path d="M 3.507812 0 L 0.386719 0 L 0.386719 -0.347656 C 0.472656 -0.351562 0.601562 -0.363281 0.765625 -0.375 C 0.933594 -0.390625 1.050781 -0.410156 1.117188 -0.433594 C 1.226562 -0.476562 1.304688 -0.535156 1.351562 -0.609375 C 1.402344 -0.679688 1.425781 -0.78125 1.425781 -0.914062 L 1.425781 -5.933594 C 1.425781 -6.046875 1.40625 -6.140625 1.371094 -6.21875 C 1.335938 -6.292969 1.25 -6.359375 1.117188 -6.410156 C 1.019531 -6.449219 0.898438 -6.488281 0.75 -6.519531 C 0.601562 -6.554688 0.480469 -6.574219 0.386719 -6.582031 L 0.386719 -6.929688 L 3.507812 -6.929688 L 3.507812 -6.582031 C 3.40625 -6.578125 3.285156 -6.566406 3.144531 -6.546875 C 3.003906 -6.523438 2.882812 -6.496094 2.777344 -6.464844 C 2.65625 -6.425781 2.570312 -6.363281 2.53125 -6.273438 C 2.488281 -6.1875 2.464844 -6.089844 2.464844 -5.980469 L 2.464844 -0.96875 C 2.464844 -0.859375 2.488281 -0.765625 2.535156 -0.679688 C 2.582031 -0.597656 2.664062 -0.53125 2.777344 -0.484375 C 2.847656 -0.457031 2.957031 -0.429688 3.113281 -0.398438 C 3.265625 -0.367188 3.398438 -0.351562 3.507812 -0.347656 Z "/>
</g>
</g>
</defs>
<g fill="rgb(100%, 100%, 100%)" fill-opacity="1">
<use xlink:href="#glyph-0-0" x="30" y="29.169922"/>
<use xlink:href="#glyph-0-1" x="32" y="29.169922"/>
<use xlink:href="#glyph-0-2" x="39" y="29.169922"/>
</g>
</svg>
