<?xml version="1.0" encoding="UTF-8"?>
<svg xmlns="http://www.w3.org/2000/svg" xmlns:xlink="http://www.w3.org/1999/xlink" width="854" height="480" viewBox="0 0 854 480">
<defs>
<g>
<g id="glyph-0-0">
<path d="M 2.003906 -1.328125 C 2.144531 -1.277344 2.238281 -1.175781 2.292969 -1.027344 C 2.34375 -0.882812 2.371094 -0.773438 2.371094 -0.703125 C 2.371094 -0.652344 2.351562 -0.558594 2.316406 -0.429688 C 2.28125 -0.300781 2.199219 -0.191406 2.070312 -0.105469 C 1.941406 -0.015625 1.789062 0.0273438 1.613281 0.0273438 C 1.441406 0.0273438 1.285156 -0.0429688 1.144531 -0.183594 C 1.007812 -0.320312 0.933594 -0.472656 0.925781 -0.636719 C 0.914062 -0.804688 0.949219 -0.949219 1.027344 -1.082031 C 1.105469 -1.210938 1.207031 -1.296875 1.328125 -1.339844 C 1.449219 -1.382812 1.554688 -1.40625 1.640625 -1.40625 C 1.746094 -1.40625 1.867188 -1.378906 2.003906 -1.328125 M 1.980469 -0.300781 C 2.101562 -0.378906 2.15625 -0.515625 2.148438 -0.714844 C 2.140625 -0.914062 2.074219 -1.046875 1.953125 -1.105469 C 1.832031 -1.167969 1.726562 -1.199219 1.640625 -1.199219 C 1.535156 -1.199219 1.429688 -1.160156 1.316406 -1.082031 C 1.203125 -1.003906 1.144531 -0.867188 1.144531 -0.675781 C 1.144531 -0.484375 1.210938 -0.355469 1.339844 -0.285156 C 1.472656 -0.21875 1.570312 -0.183594 1.640625 -0.183594 C 1.746094 -0.183594 1.859375 -0.222656 1.980469 -0.300781 Z "/>
</g>
</g>
</defs>
<g fill="rgb(100%, 100%, 100%)" fill-opacity="1">
<use xlink:href="#glyph-0-0" x="30" y="25.728516"/>
</g>
</svg>
