<?xml version="1.0" encoding="UTF-8"?>
<svg xmlns="http://www.w3.org/2000/svg" xmlns:xlink="http://www.w3.org/1999/xlink" width="854" height="480" viewBox="0 0 854 480">
<defs>
<g>
<g id="glyph-0-0">
<path d="M 4.894531 -8.410156 C 5.519531 -8.5 6.441406 -8.679688 7.65625 -8.957031 C 8.871094 -9.234375 9.617188 -9.445312 9.894531 -9.582031 C 9.964844 -9.617188 10.050781 -9.636719 10.15625 -9.636719 C 10.328125 -9.636719 10.511719 -9.53125 10.703125 -9.324219 C 10.894531 -9.113281 11.015625 -8.957031 11.066406 -8.855469 C 11.121094 -8.75 11.144531 -8.664062 11.144531 -8.59375 C 11.144531 -8.488281 11.078125 -8.402344 10.9375 -8.332031 C 10.730469 -8.230469 10.363281 -7.96875 9.84375 -7.550781 C 9.289062 -7.136719 8.386719 -6.476562 7.136719 -5.574219 C 6.890625 -4.496094 6.535156 -3.523438 6.066406 -2.65625 C 5.597656 -1.789062 5.15625 -1.144531 4.738281 -0.730469 C 4.324219 -0.3125 3.949219 0.0078125 3.621094 0.234375 C 3.289062 0.460938 3.089844 0.5625 3.019531 0.546875 C 2.953125 0.53125 3.175781 0.242188 3.699219 -0.3125 C 4.183594 -0.867188 4.652344 -1.5625 5.105469 -2.394531 C 5.554688 -3.230469 5.859375 -3.90625 6.015625 -4.425781 C 6.171875 -4.949219 6.265625 -5.347656 6.300781 -5.625 C 6.335938 -5.902344 6.355469 -6.179688 6.355469 -6.457031 C 6.320312 -6.632812 6.355469 -6.71875 6.457031 -6.71875 C 6.527344 -6.71875 6.625 -6.691406 6.746094 -6.640625 C 6.867188 -6.589844 7.046875 -6.40625 7.292969 -6.09375 C 7.640625 -6.371094 8.082031 -6.796875 8.621094 -7.371094 C 9.15625 -7.941406 9.488281 -8.316406 9.609375 -8.488281 C 9.730469 -8.664062 9.792969 -8.765625 9.792969 -8.800781 C 9.792969 -8.871094 9.730469 -8.90625 9.609375 -8.90625 C 9.488281 -8.90625 8.601562 -8.722656 6.953125 -8.359375 C 5.304688 -7.996094 4.289062 -7.726562 3.90625 -7.550781 C 3.523438 -7.378906 3.160156 -7.484375 2.8125 -7.863281 C 2.464844 -8.246094 2.570312 -8.410156 3.125 -8.359375 C 3.679688 -8.308594 4.269531 -8.324219 4.894531 -8.410156 Z "/>
</g>
</g>
</defs>
<g fill="rgb(100%, 100%, 100%)" fill-opacity="1">
<use xlink:href="#glyph-0-0" x="30" y="31.458008"/>
</g>
</svg>
