<?xml version="1.0" encoding="UTF-8"?>
<svg xmlns="http://www.w3.org/2000/svg" xmlns:xlink="http://www.w3.org/1999/xlink" width="854" height="480" viewBox="0 0 854 480">
<defs>
<g>
<g id="glyph-0-0">
</g>
<g id="glyph-0-1">
<path d="M 0.867188 0 L 0.867188 -4.5 L 0.09375 -4.5 L 0.09375 -5.1875 L 0.867188 -5.1875 L 0.867188 -5.738281 C 0.867188 -6.085938 0.898438 -6.34375 0.960938 -6.515625 C 1.046875 -6.742188 1.195312 -6.925781 1.410156 -7.066406 C 1.621094 -7.210938 1.921875 -7.28125 2.304688 -7.28125 C 2.550781 -7.28125 2.824219 -7.25 3.125 -7.191406 L 2.992188 -6.425781 C 2.8125 -6.457031 2.636719 -6.476562 2.476562 -6.476562 C 2.207031 -6.476562 2.019531 -6.417969 1.910156 -6.304688 C 1.796875 -6.191406 1.742188 -5.976562 1.742188 -5.664062 L 1.742188 -5.1875 L 2.753906 -5.1875 L 2.753906 -4.5 L 1.742188 -4.5 L 1.742188 0 Z "/>
</g>
<g id="glyph-0-2">
<path d="M 0.332031 -2.59375 C 0.332031 -3.554688 0.597656 -4.265625 1.132812 -4.726562 C 1.578125 -5.109375 2.121094 -5.304688 2.765625 -5.304688 C 3.476562 -5.304688 4.058594 -5.070312 4.511719 -4.601562 C 4.964844 -4.136719 5.191406 -3.488281 5.191406 -2.664062 C 5.191406 -2 5.089844 -1.472656 4.890625 -1.089844 C 4.691406 -0.707031 4.398438 -0.410156 4.015625 -0.199219 C 3.632812 0.0117188 3.214844 0.117188 2.765625 0.117188 C 2.039062 0.117188 1.449219 -0.117188 1.003906 -0.582031 C 0.554688 -1.046875 0.332031 -1.71875 0.332031 -2.59375 M 1.234375 -2.59375 C 1.234375 -1.929688 1.378906 -1.429688 1.671875 -1.101562 C 1.960938 -0.769531 2.324219 -0.605469 2.765625 -0.605469 C 3.199219 -0.605469 3.5625 -0.773438 3.851562 -1.101562 C 4.140625 -1.4375 4.289062 -1.941406 4.289062 -2.621094 C 4.289062 -3.261719 4.140625 -3.75 3.851562 -4.078125 C 3.558594 -4.410156 3.195312 -4.574219 2.765625 -4.574219 C 2.324219 -4.574219 1.960938 -4.410156 1.671875 -4.082031 C 1.378906 -3.753906 1.234375 -3.257812 1.234375 -2.59375 Z "/>
</g>
<g id="glyph-0-3">
<path d="M 0.0742188 0 L 1.96875 -2.695312 L 0.214844 -5.1875 L 1.3125 -5.1875 L 2.109375 -3.96875 C 2.257812 -3.738281 2.378906 -3.546875 2.46875 -3.390625 C 2.613281 -3.601562 2.746094 -3.792969 2.867188 -3.960938 L 3.742188 -5.1875 L 4.789062 -5.1875 L 3 -2.742188 L 4.925781 0 L 3.847656 0 L 2.78125 -1.609375 L 2.5 -2.046875 L 1.136719 0 Z "/>
</g>
</g>
</defs>
<g fill="rgb(100%, 100%, 100%)" fill-opacity="1">
<use xlink:href="#glyph-0-0" x="30" y="29.052734"/>
<use xlink:href="#glyph-0-1" x="33" y="29.052734"/>
<use xlink:href="#glyph-0-2" x="36" y="29.052734"/>
<use xlink:href="#glyph-0-3" x="42" y="29.052734"/>
</g>
</svg>
